<?xml version="1.0" encoding="UTF-8" standalone="no"?>
<!-- Created with Inkscape (http://www.inkscape.org/) -->

<svg
   xmlns:dc="http://purl.org/dc/elements/1.1/"
   xmlns:cc="http://creativecommons.org/ns#"
   xmlns:rdf="http://www.w3.org/1999/02/22-rdf-syntax-ns#"
   xmlns:svg="http://www.w3.org/2000/svg"
   xmlns="http://www.w3.org/2000/svg"
   xmlns:sodipodi="http://sodipodi.sourceforge.net/DTD/sodipodi-0.dtd"
   xmlns:inkscape="http://www.inkscape.org/namespaces/inkscape"
   width="27.717556mm"
   height="17.815214mm"
   viewBox="0 0 27.717555 17.815214"
   version="1.1"
   id="svg8"
   inkscape:version="0.92.5 (2060ec1f9f, 2020-04-08)"
   sodipodi:docname="triangle-law-yrot.svg">
  <defs
     id="defs2">
    <marker
       inkscape:stockid="Arrow1Send"
       orient="auto"
       refY="0"
       refX="0"
       id="marker1533"
       style="overflow:visible"
       inkscape:isstock="true">
      <path
         id="path1531"
         d="M 0,0 5,-5 -12.5,0 5,5 Z"
         style="fill:#000000;fill-opacity:1;fill-rule:evenodd;stroke:#000000;stroke-width:1.00000003pt;stroke-opacity:1"
         transform="matrix(-0.2,0,0,-0.2,-1.2,0)"
         inkscape:connector-curvature="0" />
    </marker>
    <marker
       inkscape:stockid="Arrow1Sstart"
       orient="auto"
       refY="0"
       refX="0"
       id="Arrow1Sstart"
       style="overflow:visible"
       inkscape:isstock="true">
      <path
         id="path829"
         d="M 0,0 5,-5 -12.5,0 5,5 Z"
         style="fill:#000000;fill-opacity:1;fill-rule:evenodd;stroke:#000000;stroke-width:1.00000003pt;stroke-opacity:1"
         transform="matrix(0.2,0,0,0.2,1.2,0)"
         inkscape:connector-curvature="0" />
    </marker>
    <marker
       inkscape:stockid="Arrow1Send"
       orient="auto"
       refY="0"
       refX="0"
       id="marker1361"
       style="overflow:visible"
       inkscape:isstock="true">
      <path
         id="path1359"
         d="M 0,0 5,-5 -12.5,0 5,5 Z"
         style="fill:#000000;fill-opacity:1;fill-rule:evenodd;stroke:#000000;stroke-width:1.00000003pt;stroke-opacity:1"
         transform="matrix(-0.2,0,0,-0.2,-1.2,0)"
         inkscape:connector-curvature="0" />
    </marker>
    <marker
       inkscape:stockid="Arrow1Send"
       orient="auto"
       refY="0"
       refX="0"
       id="Arrow1Send"
       style="overflow:visible"
       inkscape:isstock="true">
      <path
         id="path832"
         d="M 0,0 5,-5 -12.5,0 5,5 Z"
         style="fill:#000000;fill-opacity:1;fill-rule:evenodd;stroke:#000000;stroke-width:1.00000003pt;stroke-opacity:1"
         transform="matrix(-0.2,0,0,-0.2,-1.2,0)"
         inkscape:connector-curvature="0" />
    </marker>
  </defs>
  <sodipodi:namedview
     id="base"
     pagecolor="#ffffff"
     bordercolor="#666666"
     borderopacity="1.0"
     inkscape:pageopacity="0.0"
     inkscape:pageshadow="2"
     inkscape:zoom="2.8"
     inkscape:cx="-46.098852"
     inkscape:cy="9.1058493"
     inkscape:document-units="mm"
     inkscape:current-layer="layer1"
     showgrid="false"
     inkscape:window-width="1089"
     inkscape:window-height="956"
     inkscape:window-x="827"
     inkscape:window-y="122"
     inkscape:window-maximized="0"
     fit-margin-top="0"
     fit-margin-left="0"
     fit-margin-right="0"
     fit-margin-bottom="0" />
  <metadata
     id="metadata5">
    <rdf:RDF>
      <cc:Work
         rdf:about="">
        <dc:format>image/svg+xml</dc:format>
        <dc:type
           rdf:resource="http://purl.org/dc/dcmitype/StillImage" />
        <dc:title></dc:title>
      </cc:Work>
    </rdf:RDF>
  </metadata>
  <g
     inkscape:label="Layer 1"
     inkscape:groupmode="layer"
     id="layer1"
     transform="translate(-7.6498529,-48.234242)">
    <path
       style="fill:none;stroke:#000000;stroke-width:0.26499999;stroke-linecap:butt;stroke-linejoin:miter;stroke-miterlimit:4;stroke-dasharray:none;stroke-opacity:1;marker-start:url(#Arrow1Sstart);marker-end:url(#Arrow1Send)"
       d="M 34.894293,63.788689 H 16.630952 L 9.5184674,50.406057"
       id="path815"
       inkscape:connector-curvature="0"
       sodipodi:nodetypes="ccc" />
    <path
       style="fill:none;stroke:#000000;stroke-width:0.26458332px;stroke-linecap:butt;stroke-linejoin:miter;stroke-opacity:1;marker-end:url(#marker1361)"
       d="m 16.630952,63.788689 0.06682,-15.08208"
       id="path1357"
       inkscape:connector-curvature="0"
       sodipodi:nodetypes="cc" />
    <path
       style="fill:none;stroke:#000000;stroke-width:0.26458332px;stroke-linecap:butt;stroke-linejoin:miter;stroke-opacity:1;marker-end:url(#marker1533)"
       d="m 16.636179,53.271421 c 0,0 -0.797343,-0.115284 -2.037929,0.233862 -1.736083,0.488596 -2.555766,1.503391 -2.555766,1.503391"
       id="path1529"
       inkscape:connector-curvature="0"
       sodipodi:nodetypes="csc" />
    <rect
       style="fill:none;stroke:#000000;stroke-width:0.26499999;stroke-miterlimit:4;stroke-dasharray:none;stroke-dashoffset:0"
       id="rect2681"
       width="2.271791"
       height="2.1381562"
       x="16.570711"
       y="61.66917" />
    <g
       id="g2711"
       transform="matrix(0.32966804,0,0,0.32966804,-13.934424,24.507101)">
      <g
         word-spacing="normal"
         letter-spacing="normal"
         font-size-adjust="none"
         font-stretch="normal"
         font-weight="normal"
         font-variant="normal"
         font-style="normal"
         stroke-miterlimit="10.433"
         xml:space="preserve"
         transform="matrix(0.3,0,0,-0.3,-52.5,222.75)"
         id="g2709"
         style="font-style:normal;font-variant:normal;font-weight:normal;font-stretch:normal;letter-spacing:normal;word-spacing:normal;text-anchor:start;fill:none;fill-opacity:1;fill-rule:evenodd;stroke:#000000;stroke-linecap:butt;stroke-linejoin:miter;stroke-miterlimit:10.43299961;stroke-dasharray:none;stroke-dashoffset:0;stroke-opacity:1"><path
           id="path2707"
           d="m 478.19,431.11 v 0.31 l -0.01,0.34 -0.02,0.36 -0.02,0.37 -0.03,0.39 -0.04,0.39 -0.04,0.41 -0.06,0.41 -0.07,0.42 -0.07,0.43 -0.09,0.42 -0.1,0.43 -0.12,0.42 -0.12,0.42 -0.14,0.41 -0.16,0.41 -0.17,0.4 -0.18,0.38 -0.2,0.37 -0.22,0.36 -0.23,0.34 -0.25,0.32 -0.28,0.3 -0.29,0.27 -0.31,0.25 -0.16,0.12 -0.17,0.1 -0.17,0.1 -0.18,0.1 -0.18,0.08 -0.19,0.08 -0.19,0.07 -0.2,0.06 -0.21,0.05 -0.21,0.05 -0.22,0.03 -0.22,0.02 -0.23,0.02 h -0.23 l -0.05,-1.09 c 2.44,0 2.73,-3.19 2.73,-6.03 0,-2.44 -0.39,-4.99 -1.59,-9.92 h -10.41 c 0.85,3.2 1.85,7.18 3.83,10.72 1.36,2.43 3.19,5.23 5.44,5.23 l 0.05,1.09 c -6.92,0 -14.6,-14.04 -14.6,-25.45 0,-4.69 1.44,-10.22 5.99,-10.22 v 1.1 c -1.66,0 -2.71,1.45 -2.71,6.07 0,2.1 0.3,4.99 1.6,9.86 h 10.37 c -0.54,-2.28 -1.59,-6.51 -3.5,-10.11 -1.73,-3.39 -3.62,-5.82 -5.76,-5.82 v -1.1 c 7.01,0 14.59,14.3 14.59,25.46 z"
           inkscape:connector-curvature="0"
           style="fill:#000000;stroke-width:0" /></g>    </g>
    <g
       id="g885"
       transform="translate(24.97571,59.809524)">
      <g
         word-spacing="normal"
         letter-spacing="normal"
         font-size-adjust="none"
         font-stretch="normal"
         font-weight="normal"
         font-variant="normal"
         font-style="normal"
         stroke-miterlimit="10.433"
         xml:space="preserve"
         transform="matrix(0.02800567,0,0,-0.02800567,-4.9009928,17.397952)"
         id="content"
         style="font-style:normal;font-variant:normal;font-weight:normal;font-stretch:normal;letter-spacing:normal;word-spacing:normal;text-anchor:start;fill:none;fill-opacity:1;fill-rule:evenodd;stroke:#000000;stroke-linecap:butt;stroke-linejoin:miter;stroke-miterlimit:10.43299961;stroke-dasharray:none;stroke-dashoffset:0;stroke-opacity:1"><polygon
           id="polygon878"
           points="470.73,438.91 476.47,433.83 477.36,434.72 470.73,441.5 464.06,434.72 464.95,433.83 "
           style="fill:#000000;stroke-width:0" /><path
           id="path880"
           d="m 472.75,418.45 5.83,6.48 c 0.66,0.71 0.96,1.05 5.1,1.05 v 2.34 c -1.75,-0.11 -4.35,-0.15 -4.6,-0.15 -1.25,0 -3.73,0.11 -5.12,0.15 v -2.34 c 0.68,0 1.29,-0.11 1.89,-0.45 -0.21,-0.3 -0.21,-0.39 -0.41,-0.6 l -4.17,-4.68 -4.89,5.73 h 2 v 2.34 c -1.3,-0.04 -4.44,-0.15 -6.03,-0.15 -1.6,0 -3.85,0.11 -5.49,0.15 v -2.34 h 3.53 l 7.79,-9.17 -6.54,-7.33 c -0.84,-0.94 -2.64,-0.94 -5.03,-0.94 v -2.34 c 1.75,0.09 4.35,0.16 4.58,0.16 1.25,0 4.14,-0.11 5.14,-0.16 v 2.34 c -0.89,0 -1.84,0.25 -1.84,0.55 0,0.05 0,0.09 0.34,0.5 l 4.85,5.42 5.46,-6.47 h -1.93 v -2.34 c 1.29,0.05 4.33,0.16 5.98,0.16 1.6,0 3.83,-0.11 5.47,-0.16 v 2.34 h -3.53 z"
           inkscape:connector-curvature="0"
           style="fill:#000000;stroke-width:0" /><path
           id="path882"
           d="m 504.09,409.87 0.02,0.09 0.03,0.1 0.02,0.1 0.03,0.1 0.03,0.1 0.02,0.11 0.06,0.22 0.05,0.22 0.06,0.22 0.05,0.22 0.03,0.11 0.02,0.1 0.03,0.11 0.02,0.1 0.02,0.09 0.02,0.1 0.02,0.09 0.02,0.09 0.02,0.08 0.02,0.07 0.01,0.07 0.02,0.07 0.01,0.06 0.01,0.05 0.01,0.04 v 0.04 0.01 0.02 l 0.01,0.01 v 0.01 c 0,0.69 -0.55,1.11 -1.14,1.11 -0.68,0 -1.3,-0.42 -1.5,-1.02 -0.11,-0.26 -0.46,-1.73 -0.71,-2.61 -0.48,-1.98 -0.48,-2.04 -1,-4 -0.45,-1.92 -0.53,-2.2 -0.56,-3.2 0.14,-0.7 -0.14,-1.36 -0.98,-2.41 -0.44,-0.56 -1.15,-1.15 -2.33,-1.15 -1.36,0 -3.14,0.48 -3.14,3.2 0,1.78 0.98,4.36 1.67,6.14 0.59,1.53 0.73,1.84 0.73,2.44 0,1.67 -1.42,2.95 -3.31,2.95 -3.52,0 -5.08,-4.73 -5.08,-5.33 0,-0.45 0.49,-0.45 0.6,-0.45 0.48,0 0.51,0.17 0.62,0.56 0.88,2.89 2.38,4.25 3.77,4.25 0.59,0 0.86,-0.39 0.86,-1.22 0,-0.79 -0.32,-1.56 -0.49,-2.01 -1.98,-5.1 -1.98,-5.8 -1.98,-6.88 0,-4.11 3.73,-4.62 5.61,-4.62 0.67,0 2.37,0 3.93,2.33 0.8,-1.57 2.72,-2.33 4.85,-2.33 3.11,0 4.64,2.67 5.33,4.11 1.5,2.92 2.43,7.28 2.43,8.89 0,2.61 -1.48,2.75 -1.73,2.75 -0.91,0 -1.88,-0.96 -1.88,-1.86 0,-0.58 0.35,-0.86 0.58,-1.08 0.85,-0.69 1.3,-1.67 1.3,-2.78 0,-0.45 -1.47,-9.06 -5.89,-9.06 -2.83,0 -2.83,2.51 -2.83,3.11 0,0.93 0.14,1.5 0.64,3.48 z"
           inkscape:connector-curvature="0"
           style="fill:#000000;stroke-width:0" /></g>    </g>
    <g
       id="g949"
       transform="translate(9.3841924,44.64323)">
      <g
         word-spacing="normal"
         letter-spacing="normal"
         font-size-adjust="none"
         font-stretch="normal"
         font-weight="normal"
         font-variant="normal"
         font-style="normal"
         stroke-miterlimit="10.433"
         xml:space="preserve"
         transform="matrix(0.02800567,0,0,-0.02800567,-4.9009928,17.397952)"
         id="g947"
         style="font-style:normal;font-variant:normal;font-weight:normal;font-stretch:normal;letter-spacing:normal;word-spacing:normal;text-anchor:start;fill:none;fill-opacity:1;fill-rule:evenodd;stroke:#000000;stroke-linecap:butt;stroke-linejoin:miter;stroke-miterlimit:10.43299961;stroke-dasharray:none;stroke-dashoffset:0;stroke-opacity:1"><polygon
           id="polygon941"
           points="476.83,433.83 477.72,434.72 471.09,441.5 464.42,434.72 465.31,433.83 471.09,438.91 "
           style="fill:#000000;stroke-width:0" /><path
           id="path943"
           d="m 480.72,424.93 0.07,0.13 0.06,0.12 0.04,0.06 0.03,0.05 0.04,0.05 0.04,0.05 0.05,0.05 0.05,0.05 0.05,0.04 0.06,0.04 0.06,0.04 0.07,0.04 0.08,0.04 0.09,0.03 0.09,0.03 0.1,0.03 0.12,0.03 0.12,0.02 0.13,0.03 0.07,0.01 0.07,0.01 0.08,0.01 0.08,0.01 0.08,0.01 0.09,0.01 h 0.09 l 0.09,0.01 0.1,0.01 h 0.1 l 0.1,0.01 h 0.11 l 0.11,0.01 h 0.11 l 0.12,0.01 h 0.12 0.13 l 0.13,0.01 h 0.13 0.14 0.14 0.15 v 2.34 c -1.19,-0.11 -2.69,-0.15 -3.94,-0.15 -1.23,0 -3.48,0.11 -4.53,0.15 v -2.34 c 0.11,0 2.35,0 2.35,-0.59 0,-0.07 -0.21,-0.55 -0.25,-0.61 l -5.72,-12.25 -6.33,13.45 h 2.69 v 2.34 c -1.64,-0.11 -6.13,-0.15 -6.19,-0.15 -1.39,0 -3.63,0.11 -5.67,0.15 v -2.34 H 460 l 9.32,-19.78 -1.14,-2.39 c -1.1,-2.39 -2.69,-5.78 -6.24,-5.78 -0.69,0 -0.8,0.04 -1.19,0.2 0.44,0.2 1.6,0.89 1.6,2.64 0,1.64 -1.21,2.84 -2.89,2.84 -1.39,0 -2.85,-0.95 -2.85,-2.89 0,-2.54 2.35,-4.59 5.33,-4.59 3.85,0 6.74,3.09 8.08,5.94 z"
           inkscape:connector-curvature="0"
           style="fill:#000000;stroke-width:0" /><path
           id="path945"
           d="m 504.09,409.87 0.02,0.09 0.03,0.1 0.02,0.1 0.03,0.1 0.03,0.1 0.02,0.11 0.06,0.22 0.05,0.22 0.06,0.22 0.05,0.22 0.03,0.11 0.02,0.1 0.03,0.11 0.02,0.1 0.02,0.09 0.02,0.1 0.02,0.09 0.02,0.09 0.02,0.08 0.02,0.07 0.01,0.07 0.02,0.07 0.01,0.06 0.01,0.05 0.01,0.04 v 0.04 0.01 0.02 l 0.01,0.01 v 0.01 c 0,0.69 -0.55,1.11 -1.14,1.11 -0.68,0 -1.3,-0.42 -1.5,-1.02 -0.11,-0.26 -0.46,-1.73 -0.71,-2.61 -0.48,-1.98 -0.48,-2.04 -1,-4 -0.45,-1.92 -0.53,-2.2 -0.56,-3.2 0.14,-0.7 -0.14,-1.36 -0.98,-2.41 -0.44,-0.56 -1.15,-1.15 -2.33,-1.15 -1.36,0 -3.14,0.48 -3.14,3.2 0,1.78 0.98,4.36 1.67,6.14 0.59,1.53 0.73,1.84 0.73,2.44 0,1.67 -1.42,2.95 -3.31,2.95 -3.52,0 -5.08,-4.73 -5.08,-5.33 0,-0.45 0.49,-0.45 0.6,-0.45 0.48,0 0.51,0.17 0.62,0.56 0.88,2.89 2.38,4.25 3.77,4.25 0.59,0 0.86,-0.39 0.86,-1.22 0,-0.79 -0.32,-1.56 -0.49,-2.01 -1.98,-5.1 -1.98,-5.8 -1.98,-6.88 0,-4.11 3.73,-4.62 5.61,-4.62 0.67,0 2.37,0 3.93,2.33 0.8,-1.57 2.72,-2.33 4.85,-2.33 3.11,0 4.64,2.67 5.33,4.11 1.5,2.92 2.43,7.28 2.43,8.89 0,2.61 -1.48,2.75 -1.73,2.75 -0.91,0 -1.88,-0.96 -1.88,-1.86 0,-0.58 0.35,-0.86 0.58,-1.08 0.85,-0.69 1.3,-1.67 1.3,-2.78 0,-0.45 -1.47,-9.06 -5.89,-9.06 -2.83,0 -2.83,2.51 -2.83,3.11 0,0.93 0.14,1.5 0.64,3.48 z"
           inkscape:connector-curvature="0"
           style="fill:#000000;stroke-width:0" /></g>    </g>
    <g
       id="g3597"
       transform="translate(-0.23682327,44.015639)">
      <g
         word-spacing="normal"
         letter-spacing="normal"
         font-size-adjust="none"
         font-stretch="normal"
         font-weight="normal"
         font-variant="normal"
         font-style="normal"
         stroke-miterlimit="10.433"
         xml:space="preserve"
         transform="matrix(0.02800567,0,0,-0.02800567,-4.9009928,17.397952)"
         id="g3595"
         style="font-style:normal;font-variant:normal;font-weight:normal;font-stretch:normal;letter-spacing:normal;word-spacing:normal;text-anchor:start;fill:none;fill-opacity:1;fill-rule:evenodd;stroke:#000000;stroke-linecap:butt;stroke-linejoin:miter;stroke-miterlimit:10.43299961;stroke-dasharray:none;stroke-dashoffset:0;stroke-opacity:1"><polygon
           id="polygon3589"
           points="465.31,433.83 471.09,438.91 476.83,433.83 477.72,434.72 471.09,441.5 464.42,434.72 "
           style="fill:#000000;stroke-width:0" /><path
           id="path3591"
           d="m 480.72,424.93 0.07,0.13 0.06,0.12 0.04,0.06 0.03,0.05 0.04,0.05 0.04,0.05 0.05,0.05 0.05,0.05 0.05,0.04 0.06,0.04 0.06,0.04 0.07,0.04 0.08,0.04 0.09,0.03 0.09,0.03 0.1,0.03 0.12,0.03 0.12,0.02 0.13,0.03 0.07,0.01 0.07,0.01 0.08,0.01 0.08,0.01 0.08,0.01 0.09,0.01 h 0.09 l 0.09,0.01 0.1,0.01 h 0.1 l 0.1,0.01 h 0.11 l 0.11,0.01 h 0.11 l 0.12,0.01 h 0.12 0.13 l 0.13,0.01 h 0.13 0.14 0.14 0.15 v 2.34 c -1.19,-0.11 -2.69,-0.15 -3.94,-0.15 -1.23,0 -3.48,0.11 -4.53,0.15 v -2.34 c 0.11,0 2.35,0 2.35,-0.59 0,-0.07 -0.21,-0.55 -0.25,-0.61 l -5.72,-12.25 -6.33,13.45 h 2.69 v 2.34 c -1.64,-0.11 -6.13,-0.15 -6.19,-0.15 -1.39,0 -3.63,0.11 -5.67,0.15 v -2.34 H 460 l 9.32,-19.78 -1.14,-2.39 c -1.1,-2.39 -2.69,-5.78 -6.24,-5.78 -0.69,0 -0.8,0.04 -1.19,0.2 0.44,0.2 1.6,0.89 1.6,2.64 0,1.64 -1.21,2.84 -2.89,2.84 -1.39,0 -2.85,-0.95 -2.85,-2.89 0,-2.54 2.35,-4.59 5.33,-4.59 3.85,0 6.74,3.09 8.08,5.94 z"
           inkscape:connector-curvature="0"
           style="fill:#000000;stroke-width:0" /><path
           id="path3593"
           d="m 501.03,412.11 -0.12,-0.03 -0.11,-0.02 -0.11,-0.03 -0.1,-0.04 -0.1,-0.03 -0.1,-0.04 -0.09,-0.05 -0.08,-0.05 -0.09,-0.05 -0.08,-0.05 -0.07,-0.06 -0.07,-0.06 -0.07,-0.06 -0.06,-0.07 -0.06,-0.06 -0.06,-0.07 -0.05,-0.07 -0.05,-0.07 -0.04,-0.07 -0.04,-0.08 -0.04,-0.07 -0.04,-0.08 -0.03,-0.07 -0.02,-0.08 -0.03,-0.07 -0.02,-0.08 -0.02,-0.08 -0.01,-0.07 -0.01,-0.08 -0.01,-0.07 v -0.08 -0.07 c 0,-0.94 0.73,-1.28 1.36,-1.28 0.76,0 1.98,0.55 1.98,2.22 0,2.37 -2.72,3.03 -4.59,3.03 -5.24,0 -10.08,-4.8 -10.08,-9.64 0,-3 2.09,-6.06 6.45,-6.06 5.89,0 8.64,3.44 8.64,3.94 0,0.2 -0.31,0.59 -0.59,0.59 -0.21,0 -0.28,-0.08 -0.56,-0.36 -2.72,-3.2 -6.8,-3.2 -7.43,-3.2 -2.5,0 -3.62,1.7 -3.62,3.87 0,1 0.5,4.8 2.31,7.2 1.31,1.72 3.13,2.69 4.88,2.69 0.48,0 2.15,-0.06 3.03,-1.04 z"
           inkscape:connector-curvature="0"
           style="fill:#000000;stroke-width:0" /></g>    </g>
  </g>
</svg>
